# xmcd
#
# Track frame offsets:
#	150
#	16053
#	36954
#	53805
#	67310
#	80005
#	92783
#	105459
#	122523
#	138311
#
# Disc length: 2137 seconds
#
# Revision: 0
# Processed by: cddbd v1.5.2PL0 Copyright (c) Steve Scherf et al.
# Submitted via: EZCDAudioConverter 6.0.5.1
#
DISCID=8208570a
DTITLE=Artistes Country Variés - Le Country, D'une Voix À L'autre Vol.2
DYEAR=1900
DGENRE=Country
TTITLE0=Marcel Cusson - Mille Après Mille
TTITLE1=Jean-Guy Cadieux - Danse
TTITLE2=Pierre Gauthier - Sorry Gauthier
TTITLE3=René Grondin - Dans Notre Vieux Shack
TTITLE4=Cathy Bruyère - Nos Cousins ''Les Acadiens''
TTITLE5=Normand Grenier - Je Te Quitte Chérie
TTITLE6=Éric Labelle - J'ai Entendu La Voix Du Seigneur
TTITLE7=Sylvie Carrière - Viens Danser Jolie Demoiselle
TTITLE8=Lévis Bouliane - Un Ans De Plus
TTITLE9=Julie Pelletier - Souvenir
EXTD=
EXTT0=
EXTT1=
EXTT2=
EXTT3=
EXTT4=
EXTT5=
EXTT6=
EXTT7=
EXTT8=
EXTT9=
PLAYORDER=
